<svg width="32" height="32" viewBox="0 0 32 32" fill="none" xmlns="http://www.w3.org/2000/svg">
  <!-- Background circle with earth tone gradient -->
  <defs>
    <linearGradient id="bgGradient" x1="0%" y1="0%" x2="100%" y2="100%">
      <stop offset="0%" style="stop-color:#D4A574;stop-opacity:1" />
      <stop offset="100%" style="stop-color:#8B4513;stop-opacity:1" />
    </linearGradient>
    <linearGradient id="iconGradient" x1="0%" y1="0%" x2="100%" y2="100%">
      <stop offset="0%" style="stop-color:#F4E4BC;stop-opacity:1" />
      <stop offset="100%" style="stop-color:#D4A574;stop-opacity:1" />
    </linearGradient>
  </defs>
  
  <!-- Background circle -->
  <circle cx="16" cy="16" r="15" fill="url(#bgGradient)" stroke="#8B4513" stroke-width="1"/>
  
  <!-- Automation/AI icon - stylized gear with circuit pattern -->
  <g fill="url(#iconGradient)">
    <!-- Main gear -->
    <circle cx="16" cy="16" r="6" fill="none" stroke="url(#iconGradient)" stroke-width="1.5"/>
    
    <!-- Gear teeth -->
    <rect x="15" y="8" width="2" height="3" rx="1"/>
    <rect x="15" y="21" width="2" height="3" rx="1"/>
    <rect x="8" y="15" width="3" height="2" rx="1"/>
    <rect x="21" y="15" width="3" height="2" rx="1"/>
    
    <!-- Diagonal teeth -->
    <rect x="11.5" y="11.5" width="2" height="2" rx="0.5" transform="rotate(45 12.5 12.5)"/>
    <rect x="18.5" y="18.5" width="2" height="2" rx="0.5" transform="rotate(45 19.5 19.5)"/>
    <rect x="18.5" y="11.5" width="2" height="2" rx="0.5" transform="rotate(-45 19.5 12.5)"/>
    <rect x="11.5" y="18.5" width="2" height="2" rx="0.5" transform="rotate(-45 12.5 19.5)"/>
    
    <!-- Center dot -->
    <circle cx="16" cy="16" r="2" fill="url(#iconGradient)"/>
    
    <!-- Circuit lines -->
    <path d="M4 16 L8 16" stroke="url(#iconGradient)" stroke-width="1" stroke-linecap="round"/>
    <path d="M24 16 L28 16" stroke="url(#iconGradient)" stroke-width="1" stroke-linecap="round"/>
    <path d="M16 4 L16 8" stroke="url(#iconGradient)" stroke-width="1" stroke-linecap="round"/>
    <path d="M16 24 L16 28" stroke="url(#iconGradient)" stroke-width="1" stroke-linecap="round"/>
  </g>
</svg>
